<svg width="373" height="75" viewBox="0 0 373 75" fill="none" xmlns="http://www.w3.org/2000/svg">
<path d="M24.0625 48.0312C24.0625 46.4688 23.4688 45.2604 22.2812 44.4062C21.1146 43.5312 19.0625 42.7812 16.125 42.1562C13.2083 41.5312 10.8854 40.7812 9.15625 39.9062C7.44792 39.0312 6.17708 37.9896 5.34375 36.7812C4.53125 35.5729 4.125 34.1354 4.125 32.4688C4.125 29.6979 5.29167 27.3542 7.625 25.4375C9.97917 23.5208 12.9792 22.5625 16.625 22.5625C20.4583 22.5625 23.5625 23.5521 25.9375 25.5312C28.3333 27.5104 29.5312 30.0417 29.5312 33.125H23.7188C23.7188 31.5417 23.0417 30.1771 21.6875 29.0312C20.3542 27.8854 18.6667 27.3125 16.625 27.3125C14.5208 27.3125 12.875 27.7708 11.6875 28.6875C10.5 29.6042 9.90625 30.8021 9.90625 32.2812C9.90625 33.6771 10.4583 34.7292 11.5625 35.4375C12.6667 36.1458 14.6562 36.8229 17.5312 37.4688C20.4271 38.1146 22.7708 38.8854 24.5625 39.7812C26.3542 40.6771 27.6771 41.7604 28.5312 43.0312C29.4062 44.2812 29.8438 45.8125 29.8438 47.625C29.8438 50.6458 28.6354 53.0729 26.2188 54.9062C23.8021 56.7188 20.6667 57.625 16.8125 57.625C14.1042 57.625 11.7083 57.1458 9.625 56.1875C7.54167 55.2292 5.90625 53.8958 4.71875 52.1875C3.55208 50.4583 2.96875 48.5938 2.96875 46.5938H8.75C8.85417 48.5312 9.625 50.0729 11.0625 51.2188C12.5208 52.3438 14.4375 52.9062 16.8125 52.9062C19 52.9062 20.75 52.4688 22.0625 51.5938C23.3958 50.6979 24.0625 49.5104 24.0625 48.0312ZM43.6562 57H37.875V23.1875H43.6562V57ZM37.4062 14.2188C37.4062 13.2812 37.6875 12.4896 38.25 11.8438C38.8333 11.1979 39.6875 10.875 40.8125 10.875C41.9375 10.875 42.7917 11.1979 43.375 11.8438C43.9583 12.4896 44.25 13.2812 44.25 14.2188C44.25 15.1562 43.9583 15.9375 43.375 16.5625C42.7917 17.1875 41.9375 17.5 40.8125 17.5C39.6875 17.5 38.8333 17.1875 38.25 16.5625C37.6875 15.9375 37.4062 15.1562 37.4062 14.2188ZM58.375 23.1875L58.5312 26.9375C61.0104 24.0208 64.3542 22.5625 68.5625 22.5625C73.2917 22.5625 76.5104 24.375 78.2188 28C79.3438 26.375 80.8021 25.0625 82.5938 24.0625C84.4062 23.0625 86.5417 22.5625 89 22.5625C96.4167 22.5625 100.188 26.4896 100.312 34.3438V57H94.5312V34.6875C94.5312 32.2708 93.9792 30.4688 92.875 29.2812C91.7708 28.0729 89.9167 27.4688 87.3125 27.4688C85.1667 27.4688 83.3854 28.1146 81.9688 29.4062C80.5521 30.6771 79.7292 32.3958 79.5 34.5625V57H73.6875V34.8438C73.6875 29.9271 71.2812 27.4688 66.4688 27.4688C62.6771 27.4688 60.0833 29.0833 58.6875 32.3125V57H52.9062V23.1875H58.375ZM137.625 40.4688C137.625 45.6146 136.448 49.7604 134.094 52.9062C131.74 56.0521 128.552 57.625 124.531 57.625C120.427 57.625 117.198 56.3229 114.844 53.7188V70H109.062V23.1875H114.344L114.625 26.9375C116.979 24.0208 120.25 22.5625 124.438 22.5625C128.5 22.5625 131.708 24.0938 134.062 27.1562C136.438 30.2188 137.625 34.4792 137.625 39.9375V40.4688ZM131.844 39.8125C131.844 36 131.031 32.9896 129.406 30.7812C127.781 28.5729 125.552 27.4688 122.719 27.4688C119.219 27.4688 116.594 29.0208 114.844 32.125V48.2812C116.573 51.3646 119.219 52.9062 122.781 52.9062C125.552 52.9062 127.75 51.8125 129.375 49.625C131.021 47.4167 131.844 44.1458 131.844 39.8125ZM151.281 57H145.5V9H151.281V57ZM174.594 57.625C170.01 57.625 166.281 56.125 163.406 53.125C160.531 50.1042 159.094 46.0729 159.094 41.0312V39.9688C159.094 36.6146 159.729 33.625 161 31C162.292 28.3542 164.083 26.2917 166.375 24.8125C168.688 23.3125 171.188 22.5625 173.875 22.5625C178.271 22.5625 181.688 24.0104 184.125 26.9062C186.562 29.8021 187.781 33.9479 187.781 39.3438V41.75H164.875C164.958 45.0833 165.927 47.7812 167.781 49.8438C169.656 51.8854 172.031 52.9062 174.906 52.9062C176.948 52.9062 178.677 52.4896 180.094 51.6562C181.51 50.8229 182.75 49.7188 183.812 48.3438L187.344 51.0938C184.51 55.4479 180.26 57.625 174.594 57.625ZM173.875 27.3125C171.542 27.3125 169.583 28.1667 168 29.875C166.417 31.5625 165.438 33.9375 165.062 37H182V36.5625C181.833 33.625 181.042 31.3542 179.625 29.75C178.208 28.125 176.292 27.3125 173.875 27.3125ZM204.406 14.875V23.1875H210.188V29.8125H204.406V46.6875C204.406 47.9375 204.646 48.8333 205.125 49.375C205.604 49.9167 206.521 50.1875 207.875 50.1875C208.875 50.1875 209.76 50.1146 210.531 49.9688V56.8125C208.76 57.3542 206.938 57.625 205.062 57.625C198.729 57.625 195.5 54.4271 195.375 48.0312V29.8125H190.438V23.1875H195.375V14.875H204.406ZM212.875 39.7812C212.875 36.4271 213.521 33.4375 214.812 30.8125C216.104 28.1875 217.958 26.1562 220.375 24.7188C222.812 23.2812 225.635 22.5625 228.844 22.5625C233.406 22.5625 237.125 23.9583 240 26.75C242.896 29.5417 244.51 33.3333 244.844 38.125L244.906 40.4375C244.906 45.625 243.458 49.7917 240.562 52.9375C237.667 56.0625 233.781 57.625 228.906 57.625C224.031 57.625 220.135 56.0625 217.219 52.9375C214.323 49.8125 212.875 45.5625 212.875 40.1875V39.7812ZM221.906 40.4375C221.906 43.6458 222.51 46.1042 223.719 47.8125C224.927 49.5 226.656 50.3438 228.906 50.3438C231.094 50.3438 232.802 49.5104 234.031 47.8438C235.26 46.1562 235.875 43.4688 235.875 39.7812C235.875 36.6354 235.26 34.1979 234.031 32.4688C232.802 30.7396 231.073 29.875 228.844 29.875C226.635 29.875 224.927 30.7396 223.719 32.4688C222.51 34.1771 221.906 36.8333 221.906 40.4375ZM249.062 39.7812C249.062 36.4271 249.708 33.4375 251 30.8125C252.292 28.1875 254.146 26.1562 256.562 24.7188C259 23.2812 261.823 22.5625 265.031 22.5625C269.594 22.5625 273.312 23.9583 276.188 26.75C279.083 29.5417 280.698 33.3333 281.031 38.125L281.094 40.4375C281.094 45.625 279.646 49.7917 276.75 52.9375C273.854 56.0625 269.969 57.625 265.094 57.625C260.219 57.625 256.323 56.0625 253.406 52.9375C250.51 49.8125 249.062 45.5625 249.062 40.1875V39.7812ZM258.094 40.4375C258.094 43.6458 258.698 46.1042 259.906 47.8125C261.115 49.5 262.844 50.3438 265.094 50.3438C267.281 50.3438 268.99 49.5104 270.219 47.8438C271.448 46.1562 272.062 43.4688 272.062 39.7812C272.062 36.6354 271.448 34.1979 270.219 32.4688C268.99 30.7396 267.26 29.875 265.031 29.875C262.823 29.875 261.115 30.7396 259.906 32.4688C258.698 34.1771 258.094 36.8333 258.094 40.4375ZM296.188 57H287.125V9H296.188V57ZM321.969 47.6562C321.969 46.5521 321.417 45.6875 320.312 45.0625C319.229 44.4167 317.479 43.8438 315.062 43.3438C307.021 41.6562 303 38.2396 303 33.0938C303 30.0938 304.24 27.5938 306.719 25.5938C309.219 23.5729 312.479 22.5625 316.5 22.5625C320.792 22.5625 324.219 23.5729 326.781 25.5938C329.365 27.6146 330.656 30.2396 330.656 33.4688H321.625C321.625 32.1771 321.208 31.1146 320.375 30.2812C319.542 29.4271 318.24 29 316.469 29C314.948 29 313.771 29.3438 312.938 30.0312C312.104 30.7188 311.688 31.5938 311.688 32.6562C311.688 33.6562 312.156 34.4688 313.094 35.0938C314.052 35.6979 315.656 36.2292 317.906 36.6875C320.156 37.125 322.052 37.625 323.594 38.1875C328.365 39.9375 330.75 42.9688 330.75 47.2812C330.75 50.3646 329.427 52.8646 326.781 54.7812C324.135 56.6771 320.719 57.625 316.531 57.625C313.698 57.625 311.177 57.125 308.969 56.125C306.781 55.1042 305.062 53.7188 303.812 51.9688C302.562 50.1979 301.938 48.2917 301.938 46.25H310.5C310.583 47.8542 311.177 49.0833 312.281 49.9375C313.385 50.7917 314.865 51.2188 316.719 51.2188C318.448 51.2188 319.75 50.8958 320.625 50.25C321.521 49.5833 321.969 48.7188 321.969 47.6562Z" fill="#333333"/>
<path d="M336.532 39.5442C335.176 39.8025 334.286 41.1115 334.544 42.4678L338.754 64.5704C339.013 65.9267 340.321 66.8168 341.678 66.5585C343.034 66.3001 343.924 64.9912 343.666 63.6348L339.924 43.9881L359.57 40.2458C360.927 39.9875 361.817 38.6785 361.558 37.3222C361.3 35.9659 359.991 35.0758 358.635 35.3341L336.532 39.5442ZM363.406 56.9327L338.406 39.9327L335.594 44.0673L360.594 61.0673L363.406 56.9327Z" fill="#003366"/>
</svg>
